<mxfile host="app.diagrams.net" agent="Mozilla/5.0 (Windows NT 10.0; Win64; x64) AppleWebKit/537.36 (KHTML, like Gecko) Chrome/135.0.0.0 Safari/537.36 Edg/135.0.0.0" version="26.2.13">
  <diagram name="ページ1" id="32B9ZL_77pXP6jioLYaJ">
    <mxGraphModel>
      <root>
        <mxCell id="0" />
        <mxCell id="1" parent="0" />
        <mxCell id="2" value="開始画面" style="whiteSpace=wrap;strokeWidth=2;" vertex="1" parent="1">
          <mxGeometry x="398" y="8" width="124" height="54" as="geometry" />
        </mxCell>
        <mxCell id="3" value="ログイン画面" style="whiteSpace=wrap;strokeWidth=2;" vertex="1" parent="1">
          <mxGeometry x="382" y="112" width="156" height="54" as="geometry" />
        </mxCell>
        <mxCell id="4" value="認証成功?" style="rhombus;strokeWidth=2;whiteSpace=wrap;" vertex="1" parent="1">
          <mxGeometry x="324" y="216" width="124" height="124" as="geometry" />
        </mxCell>
        <mxCell id="5" value="ダッシュボード" style="whiteSpace=wrap;strokeWidth=2;" vertex="1" parent="1">
          <mxGeometry x="260" y="413" width="172" height="54" as="geometry" />
        </mxCell>
        <mxCell id="6" value="エラーメッセージ" style="whiteSpace=wrap;strokeWidth=2;" vertex="1" parent="1">
          <mxGeometry x="482" y="413" width="187" height="54" as="geometry" />
        </mxCell>
        <mxCell id="7" value="ユーザー設定画面" style="whiteSpace=wrap;strokeWidth=2;" vertex="1" parent="1">
          <mxGeometry x="8" y="540" width="188" height="54" as="geometry" />
        </mxCell>
        <mxCell id="8" value="レポート画面" style="whiteSpace=wrap;strokeWidth=2;" vertex="1" parent="1">
          <mxGeometry x="621" y="540" width="156" height="54" as="geometry" />
        </mxCell>
        <mxCell id="9" value="更新成功?" style="rhombus;strokeWidth=2;whiteSpace=wrap;" vertex="1" parent="1">
          <mxGeometry x="78" y="667" width="124" height="124" as="geometry" />
        </mxCell>
        <mxCell id="10" value="失敗メッセージ" style="whiteSpace=wrap;strokeWidth=2;" vertex="1" parent="1">
          <mxGeometry x="54" y="864" width="172" height="54" as="geometry" />
        </mxCell>
        <mxCell id="11" value="レポート詳細画面" style="whiteSpace=wrap;strokeWidth=2;" vertex="1" parent="1">
          <mxGeometry x="605" y="702" width="188" height="54" as="geometry" />
        </mxCell>
        <mxCell id="12" value="エクスポート機能" style="whiteSpace=wrap;strokeWidth=2;" vertex="1" parent="1">
          <mxGeometry x="605" y="864" width="188" height="54" as="geometry" />
        </mxCell>
        <mxCell id="13" value="ダウンロード完了画面" style="whiteSpace=wrap;strokeWidth=2;" vertex="1" parent="1">
          <mxGeometry x="589" y="968" width="220" height="54" as="geometry" />
        </mxCell>
        <mxCell id="14" value="ログアウト確認" style="whiteSpace=wrap;strokeWidth=2;" vertex="1" parent="1">
          <mxGeometry x="367" y="540" width="172" height="54" as="geometry" />
        </mxCell>
        <mxCell id="15" value="ログアウト完了画面" style="whiteSpace=wrap;strokeWidth=2;" vertex="1" parent="1">
          <mxGeometry x="351" y="702" width="204" height="54" as="geometry" />
        </mxCell>
        <mxCell id="16" value="" style="curved=1;startArrow=none;endArrow=block;exitX=0.5;exitY=1;entryX=0.5;entryY=0;" edge="1" parent="1" source="2" target="3">
          <mxGeometry relative="1" as="geometry">
            <Array as="points" />
          </mxGeometry>
        </mxCell>
        <mxCell id="17" value="" style="curved=1;startArrow=none;endArrow=block;exitX=0.25;exitY=1;entryX=0.5;entryY=0;" edge="1" parent="1" source="3" target="4">
          <mxGeometry relative="1" as="geometry">
            <Array as="points">
              <mxPoint x="386" y="191" />
            </Array>
          </mxGeometry>
        </mxCell>
        <mxCell id="18" value="|はい|" style="curved=1;startArrow=none;endArrow=block;exitX=0.29;exitY=1;entryX=0.5;entryY=0;" edge="1" parent="1" source="4" target="5">
          <mxGeometry relative="1" as="geometry">
            <Array as="points">
              <mxPoint x="346" y="376" />
            </Array>
          </mxGeometry>
        </mxCell>
        <mxCell id="19" value="|いいえ|" style="curved=1;startArrow=none;endArrow=block;exitX=0.87;exitY=1;entryX=0.24;entryY=0;" edge="1" parent="1" source="4" target="6">
          <mxGeometry relative="1" as="geometry">
            <Array as="points">
              <mxPoint x="460" y="376" />
            </Array>
          </mxGeometry>
        </mxCell>
        <mxCell id="20" value="" style="curved=1;startArrow=none;endArrow=block;exitX=0.52;exitY=0;entryX=0.91;entryY=1;" edge="1" parent="1" source="6" target="3">
          <mxGeometry relative="1" as="geometry">
            <Array as="points">
              <mxPoint x="583" y="376" />
              <mxPoint x="583" y="191" />
            </Array>
          </mxGeometry>
        </mxCell>
        <mxCell id="21" value="" style="curved=1;startArrow=none;endArrow=block;exitX=0;exitY=0.91;entryX=0.5;entryY=0;" edge="1" parent="1" source="5" target="7">
          <mxGeometry relative="1" as="geometry">
            <Array as="points">
              <mxPoint x="102" y="503" />
            </Array>
          </mxGeometry>
        </mxCell>
        <mxCell id="22" value="" style="curved=1;startArrow=none;endArrow=block;exitX=1;exitY=0.78;entryX=0.5;entryY=0;" edge="1" parent="1" source="5" target="8">
          <mxGeometry relative="1" as="geometry">
            <Array as="points">
              <mxPoint x="699" y="503" />
            </Array>
          </mxGeometry>
        </mxCell>
        <mxCell id="23" value="" style="curved=1;startArrow=none;endArrow=block;exitX=0.5;exitY=1;entryX=0.31;entryY=0;" edge="1" parent="1" source="7" target="9">
          <mxGeometry relative="1" as="geometry">
            <Array as="points">
              <mxPoint x="102" y="630" />
            </Array>
          </mxGeometry>
        </mxCell>
        <mxCell id="24" value="|はい|" style="curved=1;startArrow=none;endArrow=block;exitX=1;exitY=0.08;entryX=0.28;entryY=1;" edge="1" parent="1" source="9" target="5">
          <mxGeometry relative="1" as="geometry">
            <Array as="points">
              <mxPoint x="257" y="630" />
              <mxPoint x="257" y="503" />
            </Array>
          </mxGeometry>
        </mxCell>
        <mxCell id="25" value="|いいえ|" style="curved=1;startArrow=none;endArrow=block;exitX=0.5;exitY=1;entryX=0.5;entryY=0;" edge="1" parent="1" source="9" target="10">
          <mxGeometry relative="1" as="geometry">
            <Array as="points" />
          </mxGeometry>
        </mxCell>
        <mxCell id="26" value="" style="curved=1;startArrow=none;endArrow=block;exitX=0.94;exitY=0;entryX=0.98;entryY=1;" edge="1" parent="1" source="10" target="7">
          <mxGeometry relative="1" as="geometry">
            <Array as="points">
              <mxPoint x="316" y="827" />
              <mxPoint x="316" y="630" />
            </Array>
          </mxGeometry>
        </mxCell>
        <mxCell id="27" value="" style="curved=1;startArrow=none;endArrow=block;exitX=0.5;exitY=1;entryX=0.5;entryY=0;" edge="1" parent="1" source="8" target="11">
          <mxGeometry relative="1" as="geometry">
            <Array as="points" />
          </mxGeometry>
        </mxCell>
        <mxCell id="28" value="" style="curved=1;startArrow=none;endArrow=block;exitX=0.5;exitY=1;entryX=0.5;entryY=0;" edge="1" parent="1" source="11" target="12">
          <mxGeometry relative="1" as="geometry">
            <Array as="points" />
          </mxGeometry>
        </mxCell>
        <mxCell id="29" value="" style="curved=1;startArrow=none;endArrow=block;exitX=0.5;exitY=1;entryX=0.5;entryY=0;" edge="1" parent="1" source="12" target="13">
          <mxGeometry relative="1" as="geometry">
            <Array as="points" />
          </mxGeometry>
        </mxCell>
        <mxCell id="30" value="" style="curved=1;startArrow=none;endArrow=block;exitX=0.5;exitY=1;entryX=0.23;entryY=0;" edge="1" parent="1" source="5" target="14">
          <mxGeometry relative="1" as="geometry">
            <Array as="points">
              <mxPoint x="346" y="503" />
            </Array>
          </mxGeometry>
        </mxCell>
        <mxCell id="31" value="|はい|" style="curved=1;startArrow=none;endArrow=block;exitX=0.5;exitY=1;entryX=0.5;entryY=0;" edge="1" parent="1" source="14" target="15">
          <mxGeometry relative="1" as="geometry">
            <Array as="points" />
          </mxGeometry>
        </mxCell>
        <mxCell id="32" value="|いいえ|" style="curved=1;startArrow=none;endArrow=block;exitX=0.73;exitY=0;entryX=1;entryY=1;" edge="1" parent="1" source="14" target="5">
          <mxGeometry relative="1" as="geometry">
            <Array as="points">
              <mxPoint x="548" y="503" />
            </Array>
          </mxGeometry>
        </mxCell>
      </root>
    </mxGraphModel>
  </diagram>
</mxfile>
